# xmcd
#
# Track frame offsets:
#	150
#	11230
#	26265
#	46235
#	63710
#	83285
#
# Disc length: 1303 seconds
#
# Revision: 1
# Processed by: cddbd v1.5.1PL0 Copyright (c) Steve Scherf et al.
# Submitted via: CDex 1.50Beta5
#
DISCID=3d051506
DTITLE=三千院やよい(井上喜久子) - いっしょにいよう
DYEAR=2003
DGENRE=Anime
TTITLE0=やよいのテーマ(Instrumental Music)
TTITLE1=硝子の瞬き
TTITLE2=永遠の鐘
TTITLE3=ここで会いましょう
TTITLE4=春夏秋冬
TTITLE5=ママ先生のドキドキおやすみなさい〜いっしょにいよう
EXTD=
EXTT0=
EXTT1=
EXTT2=
EXTT3=
EXTT4=
EXTT5=
PLAYORDER=
